# xmcd
#
# Track frame offsets:
#	150
#	15300
#	34020
#	56315
#	69057
#	86295
#	98567
#	112822
#	131280
#	153425
#	166812
#	182675
#	196590
#	210142
#	222330
#
# Disc length: 3131 seconds
#
# Revision: 5
# Processed by: cddbd v1.5.2PL0 Copyright (c) Steve Scherf et al.
# Submitted via: EasyCDDAExtractor 2010.6.0.0
#
DISCID=a00c390f
DTITLE=Various Artist - Essential Blues Vol.2 Disc 2
DYEAR=1996
DGENRE=Blues
TTITLE0=Freddie King - Going Down
TTITLE1=Albert Collins - I Ain't Drunk
TTITLE2=Robert Cray - These Things
TTITLE3=Elmore James - Shake Your Moneymaker
TTITLE4=Magic Sam - All Of Your Love
TTITLE5=James Cotton - High Compression
TTITLE6=Sonny Boy Williamson - Help Me
TTITLE7=Willie Dixon - I Ain't Superstitious
TTITLE8=Koko Taylor - Wang Dang Doodle
TTITLE9=Otis Rush - I Can't Quit You Baby
TTITLE10=Muddy Waters - I Can't Be Satisfied
TTITLE11=Slim Harpo - I'm A King Bee
TTITLE12=Amos Milburn - Down the Road Apiece
TTITLE13=Earl Hooker - Blue Guitar
TTITLE14=B.B. King - Everyday I Have The Blues
EXTD=1996
EXTT0=
EXTT1=
EXTT2=
EXTT3=
EXTT4=
EXTT5=
EXTT6=
EXTT7=
EXTT8=
EXTT9=
EXTT10=
EXTT11=
EXTT12=
EXTT13=
EXTT14=
PLAYORDER=
